<svg id="svg" version="1.1"
    xmlns="http://www.w3.org/2000/svg"
    xmlns:xlink="http://www.w3.org/1999/xlink" width="400" height="400" viewBox="0, 0, 400,400">
    <g id="svgg">
        <path id="path0" d="M184.299 29.545 C 160.551 48.860,47.005 141.120,42.600 144.681 C 40.455 146.415,38.695 147.983,38.690 148.167 C 38.667 148.961,41.579 151.821,42.041 151.460 C 43.377 150.418,78.102 122.239,121.505 86.979 C 196.744 25.853,199.654 23.500,200.002 23.500 C 200.324 23.500,208.864 30.413,294.494 99.982 C 333.443 131.627,356.636 150.440,357.949 151.455 C 358.291 151.719,358.745 151.408,359.853 150.151 C 361.580 148.192,361.592 148.084,360.226 146.970 C 359.643 146.495,335.542 126.914,306.667 103.457 C 277.792 80.000,242.125 51.020,227.407 39.057 C 212.689 27.093,200.448 17.229,200.206 17.135 C 199.957 17.040,193.014 22.456,184.299 29.545 M126.650 126.186 C 126.434 126.446,126.125 126.577,125.962 126.477 C 125.800 126.376,125.667 126.437,125.667 126.611 C 125.667 126.785,125.293 127.022,124.835 127.136 C 124.378 127.251,124.041 127.530,124.085 127.756 C 124.132 127.994,123.815 128.167,123.333 128.167 C 122.856 128.167,122.534 128.340,122.580 128.573 C 122.624 128.797,122.354 129.144,121.981 129.344 C 121.531 129.584,121.366 129.912,121.494 130.314 C 121.617 130.702,121.485 130.998,121.129 131.135 C 120.663 131.314,120.641 131.266,120.994 130.841 C 121.234 130.552,121.269 130.333,121.076 130.333 C 120.778 130.333,120.333 131.071,120.333 131.566 C 120.333 131.664,120.634 131.666,121.000 131.570 C 121.367 131.474,121.584 131.532,121.481 131.698 C 121.378 131.864,121.019 132.000,120.683 132.000 C 120.346 132.000,119.988 132.217,119.886 132.483 C 119.768 132.790,119.861 132.905,120.141 132.797 C 120.383 132.704,120.670 132.862,120.780 133.148 C 120.889 133.433,120.815 133.667,120.615 133.667 C 120.382 133.667,120.410 133.876,120.693 134.250 C 121.069 134.746,121.065 134.771,120.667 134.417 C 120.410 134.188,120.118 134.000,120.017 134.000 C 119.916 134.000,119.884 137.167,119.946 141.038 C 120.027 146.054,119.955 148.012,119.696 147.852 C 119.164 147.523,119.254 147.873,119.857 148.476 C 120.423 149.042,275.767 149.314,276.115 148.750 C 276.200 148.612,241.184 148.539,198.302 148.586 C 146.066 148.644,120.333 148.561,120.333 148.336 C 120.333 148.111,146.052 147.986,198.000 147.958 C 240.717 147.935,275.854 147.898,276.083 147.875 C 276.671 147.816,276.818 134.669,276.231 134.662 C 275.964 134.658,275.982 134.562,276.286 134.370 C 276.586 134.179,276.619 134.010,276.383 133.864 C 276.189 133.744,276.108 133.439,276.205 133.186 C 276.309 132.916,276.097 132.637,275.691 132.508 C 274.881 132.251,274.765 131.667,275.523 131.667 C 275.953 131.667,275.917 131.487,275.320 130.647 C 274.921 130.087,274.511 129.711,274.410 129.812 C 274.309 129.913,274.513 130.319,274.863 130.713 C 275.331 131.240,275.367 131.389,275.000 131.274 C 274.725 131.188,274.280 130.491,274.010 129.726 C 273.741 128.960,273.395 128.333,273.241 128.333 C 273.087 128.333,273.047 128.473,273.152 128.644 C 273.258 128.814,273.184 129.053,272.988 129.174 C 272.760 129.315,272.668 129.054,272.733 128.447 C 272.825 127.577,272.752 127.508,271.833 127.598 C 271.063 127.674,270.948 127.618,271.333 127.353 C 271.763 127.058,271.752 127.009,271.250 127.005 C 270.929 127.002,270.667 126.863,270.667 126.696 C 270.667 126.351,270.036 126.392,269.420 126.777 C 269.154 126.943,269.067 126.880,269.174 126.601 C 269.311 126.245,256.618 126.167,198.920 126.167 C 160.189 126.167,128.172 126.065,127.771 125.940 C 127.311 125.797,126.899 125.887,126.650 126.186 M198.214 126.667 C 236.575 126.667,268.030 126.779,268.115 126.917 C 268.353 127.302,128.592 127.058,128.206 126.673 C 127.997 126.463,127.697 126.493,127.358 126.758 C 126.892 127.121,126.886 127.099,127.303 126.569 C 127.628 126.155,127.878 126.078,128.119 126.319 C 128.358 126.558,150.270 126.667,198.214 126.667 M120.338 154.270 C 120.336 154.510,120.221 154.636,120.083 154.551 C 119.946 154.466,119.873 178.260,119.921 207.426 C 119.990 249.828,119.924 260.509,119.587 260.723 C 119.309 260.900,119.448 260.999,120.000 261.018 C 120.575 261.038,120.678 261.117,120.333 261.273 C 120.058 261.398,119.796 261.688,119.750 261.917 C 119.647 262.432,120.231 262.474,120.401 261.963 C 120.478 261.732,120.691 261.794,120.970 262.130 C 121.347 262.584,121.335 262.667,120.894 262.667 C 120.607 262.667,120.285 262.809,120.177 262.983 C 120.070 263.157,120.298 263.238,120.688 263.162 C 121.201 263.064,121.343 263.160,121.208 263.513 C 121.105 263.781,121.166 264.000,121.344 264.000 C 121.660 264.000,121.809 263.488,121.681 262.843 C 121.646 262.664,121.903 262.777,122.252 263.093 C 122.848 263.632,127.422 263.667,198.463 263.667 C 248.762 263.667,273.970 263.778,273.833 264.000 C 273.720 264.183,273.777 264.333,273.961 264.333 C 274.473 264.333,274.836 263.556,274.392 263.409 C 273.626 263.153,274.015 262.775,274.986 262.833 C 275.528 262.865,275.895 262.766,275.800 262.612 C 275.705 262.459,275.786 262.333,275.980 262.333 C 276.174 262.333,276.333 262.174,276.333 261.980 C 276.333 261.786,276.194 261.714,276.023 261.819 C 275.852 261.925,275.604 261.835,275.472 261.621 C 275.325 261.383,275.375 261.319,275.598 261.458 C 275.801 261.583,276.124 261.391,276.317 261.031 C 276.779 260.167,276.810 155.461,276.348 155.176 C 276.173 155.067,276.114 154.757,276.218 154.486 C 276.352 154.137,276.251 154.052,275.872 154.198 C 275.578 154.311,275.397 154.500,275.470 154.618 C 275.543 154.737,240.788 154.795,198.237 154.749 C 136.922 154.681,120.816 154.578,120.607 154.249 C 120.401 153.923,120.342 153.928,120.338 154.270 M167.856 179.528 C 167.715 180.090,167.761 180.314,167.989 180.173 C 168.181 180.055,168.424 180.183,168.530 180.458 C 168.635 180.733,168.936 180.876,169.198 180.775 C 169.539 180.644,169.612 180.755,169.453 181.168 C 169.271 181.644,169.363 181.702,169.991 181.503 C 170.561 181.322,170.685 181.368,170.487 181.688 C 170.298 181.993,170.386 182.051,170.796 181.894 C 171.136 181.763,171.285 181.808,171.164 182.004 C 171.052 182.185,171.157 182.338,171.397 182.344 C 171.665 182.350,171.577 182.559,171.167 182.886 C 170.507 183.411,170.508 183.415,171.230 183.245 C 171.808 183.109,172.030 183.274,172.296 184.036 C 172.481 184.566,172.724 185.000,172.836 185.000 C 172.948 185.000,172.947 184.850,172.833 184.667 C 172.720 184.483,172.844 184.333,173.109 184.333 C 173.374 184.333,173.830 184.838,174.123 185.454 C 174.742 186.759,175.501 187.475,175.962 187.190 C 176.141 187.079,176.396 187.165,176.528 187.379 C 176.685 187.633,176.625 187.680,176.357 187.515 C 176.068 187.336,175.977 187.475,176.055 187.976 C 176.117 188.370,176.317 188.672,176.500 188.647 C 176.683 188.621,176.785 188.432,176.725 188.226 C 176.666 188.020,176.891 188.088,177.225 188.375 C 177.560 188.663,178.096 188.992,178.417 189.106 C 178.737 189.219,178.998 189.580,178.995 189.906 C 178.991 190.412,178.942 190.425,178.667 190.000 C 178.388 189.569,178.343 189.578,178.338 190.064 C 178.333 190.690,179.615 191.738,180.054 191.466 C 180.208 191.372,180.333 191.462,180.333 191.667 C 180.333 191.872,180.521 191.933,180.750 191.804 C 181.083 191.616,181.083 191.659,180.750 192.018 C 180.208 192.602,180.208 193.185,180.751 192.735 C 181.047 192.489,181.363 192.536,181.834 192.895 C 182.487 193.392,182.486 193.398,181.752 193.179 C 181.163 193.004,181.047 193.067,181.204 193.476 C 181.313 193.762,181.537 193.913,181.702 193.812 C 181.866 193.710,182.000 193.861,182.000 194.147 C 182.000 194.433,182.230 194.667,182.510 194.667 C 182.791 194.667,183.109 194.895,183.216 195.175 C 183.377 195.593,183.503 195.608,183.931 195.259 C 184.384 194.889,184.405 194.917,184.095 195.477 C 183.681 196.227,184.392 197.209,185.054 196.800 C 185.319 196.636,185.378 196.737,185.234 197.112 C 185.117 197.417,185.149 197.667,185.305 197.667 C 185.461 197.667,185.671 197.352,185.772 196.966 C 185.873 196.581,186.102 196.357,186.281 196.468 C 186.732 196.746,186.553 197.657,185.977 198.022 C 185.714 198.187,185.663 198.325,185.863 198.328 C 186.063 198.331,186.405 198.725,186.623 199.203 C 186.915 199.844,187.197 200.026,187.695 199.896 C 188.124 199.784,188.323 199.862,188.240 200.110 C 188.077 200.594,188.967 201.308,189.750 201.323 C 190.224 201.331,190.662 202.000,190.194 202.000 C 190.117 202.000,189.780 202.089,189.444 202.198 C 188.936 202.363,188.917 202.336,189.333 202.037 C 189.608 201.839,189.683 201.679,189.500 201.682 C 189.039 201.690,187.798 202.657,188.186 202.706 C 188.359 202.728,188.624 202.724,188.775 202.698 C 188.926 202.672,188.953 202.806,188.835 202.997 C 188.717 203.188,188.457 203.243,188.258 203.120 C 188.026 202.977,187.957 203.131,188.065 203.547 C 188.187 204.014,188.058 204.212,187.611 204.246 C 187.215 204.276,187.069 204.148,187.213 203.896 C 187.338 203.678,187.329 203.600,187.192 203.722 C 187.056 203.844,186.994 204.009,187.056 204.088 C 187.323 204.433,186.231 205.277,185.726 205.115 C 185.247 204.963,185.239 204.989,185.667 205.297 C 185.942 205.495,186.017 205.661,185.833 205.667 C 185.650 205.672,185.725 205.837,186.000 206.033 C 186.380 206.304,186.235 206.344,185.397 206.199 C 184.399 206.027,184.344 206.058,184.814 206.528 C 185.426 207.140,185.498 207.474,184.943 207.132 C 184.690 206.975,184.620 207.065,184.745 207.390 C 184.857 207.681,184.749 207.889,184.486 207.889 C 184.134 207.889,184.116 207.738,184.406 207.194 C 184.749 206.550,184.732 206.536,184.170 207.000 C 183.837 207.275,183.512 207.463,183.449 207.417 C 183.062 207.138,182.626 207.413,182.787 207.833 C 182.893 208.108,182.862 208.333,182.720 208.333 C 182.577 208.333,182.170 208.559,181.814 208.834 C 181.186 209.320,181.186 209.328,181.805 209.111 C 182.246 208.956,182.368 209.007,182.202 209.277 C 182.068 209.493,182.142 209.667,182.369 209.667 C 182.958 209.667,182.507 210.033,181.781 210.144 C 181.443 210.196,181.044 210.073,180.895 209.869 C 180.745 209.666,180.720 209.844,180.839 210.266 C 181.068 211.077,180.469 212.123,179.957 211.807 C 179.791 211.704,179.744 211.479,179.851 211.305 C 179.958 211.131,180.186 211.075,180.356 211.181 C 180.686 211.384,180.792 210.903,180.486 210.597 C 180.117 210.228,178.052 212.407,178.174 213.037 C 178.247 213.415,178.022 213.810,177.607 214.032 C 177.109 214.298,176.982 214.299,177.146 214.033 C 177.271 213.832,177.263 213.667,177.129 213.667 C 176.732 213.667,175.667 214.740,175.667 215.139 C 175.667 215.342,175.339 215.657,174.938 215.838 C 173.931 216.293,173.676 217.163,174.622 216.915 C 175.022 216.810,175.250 216.865,175.142 217.040 C 175.036 217.211,174.549 217.309,174.058 217.259 C 173.252 217.176,173.176 217.263,173.260 218.167 C 173.331 218.932,173.273 219.049,173.015 218.667 C 172.722 218.234,172.676 218.243,172.672 218.730 C 172.665 219.495,171.993 219.859,171.635 219.293 C 171.424 218.960,171.342 218.948,171.338 219.250 C 171.336 219.479,171.090 219.667,170.793 219.667 C 170.346 219.667,170.325 219.755,170.673 220.175 C 170.905 220.454,170.999 220.779,170.881 220.897 C 170.763 221.015,170.667 220.961,170.667 220.778 C 170.667 220.594,170.462 220.444,170.213 220.444 C 169.963 220.444,169.776 220.682,169.796 220.972 C 169.817 221.262,169.635 221.459,169.392 221.408 C 169.149 221.358,169.041 221.463,169.151 221.642 C 169.390 222.027,168.190 222.746,167.860 222.415 C 167.734 222.290,167.740 222.470,167.872 222.815 C 168.040 223.252,167.995 223.369,167.723 223.202 C 167.509 223.069,167.333 223.128,167.333 223.333 C 167.333 223.538,167.181 223.612,166.995 223.497 C 166.808 223.381,166.742 223.148,166.848 222.977 C 166.953 222.806,166.813 222.667,166.535 222.667 C 165.714 222.667,164.339 221.927,164.544 221.596 C 164.648 221.427,164.456 221.079,164.117 220.822 C 163.756 220.549,163.673 220.350,163.917 220.344 C 164.503 220.329,164.435 219.470,163.763 218.405 C 163.202 217.515,163.204 217.509,163.846 218.058 C 164.494 218.611,166.015 218.126,165.439 217.550 C 165.320 217.431,165.397 217.333,165.611 217.333 C 165.825 217.333,166.000 217.174,166.000 216.980 C 166.000 216.786,165.835 216.729,165.633 216.854 C 165.369 217.017,165.366 216.895,165.622 216.417 C 165.817 216.053,165.900 215.678,165.807 215.585 C 165.714 215.492,165.849 215.335,166.107 215.236 C 166.422 215.115,166.563 215.282,166.538 215.748 C 166.517 216.129,166.691 216.480,166.925 216.529 C 167.159 216.577,167.204 216.543,167.025 216.453 C 166.825 216.352,166.813 215.991,166.995 215.512 C 167.158 215.085,167.263 214.680,167.229 214.614 C 167.195 214.547,167.336 214.686,167.544 214.922 C 167.849 215.270,167.960 215.251,168.125 214.822 C 168.237 214.530,168.469 214.378,168.640 214.484 C 168.812 214.590,169.001 214.343,169.060 213.935 C 169.126 213.478,169.486 213.106,170.000 212.964 L 170.833 212.733 170.000 212.689 C 169.275 212.651,169.235 212.593,169.696 212.239 C 169.987 212.016,170.326 211.608,170.450 211.333 C 170.580 211.044,170.615 211.149,170.535 211.583 C 170.442 212.083,170.559 212.333,170.884 212.333 C 171.153 212.333,171.280 212.183,171.167 212.000 C 171.053 211.817,171.157 211.664,171.397 211.662 C 171.719 211.658,171.705 211.575,171.343 211.346 C 170.778 210.989,171.065 210.575,171.923 210.512 C 172.751 210.451,173.379 210.010,173.155 209.647 C 173.051 209.479,173.168 209.419,173.415 209.514 C 173.663 209.609,174.222 209.307,174.657 208.843 C 175.133 208.337,175.277 208.000,175.017 208.000 C 174.693 208.000,174.678 207.888,174.956 207.553 C 175.160 207.307,175.221 206.999,175.091 206.868 C 174.960 206.738,175.115 206.732,175.434 206.854 C 176.110 207.114,178.336 205.729,178.125 205.179 C 178.050 204.983,178.311 204.600,178.706 204.328 C 179.478 203.796,179.741 203.533,180.536 202.500 C 180.818 202.133,180.941 202.058,180.809 202.333 C 180.611 202.746,180.649 202.759,181.032 202.403 C 181.351 202.105,181.382 201.899,181.132 201.736 C 180.932 201.606,180.665 201.074,180.538 200.554 C 180.346 199.771,180.222 199.678,179.820 200.011 C 179.349 200.402,179.156 200.123,179.294 199.250 C 179.316 199.112,179.071 198.988,178.750 198.974 C 178.402 198.958,178.334 198.880,178.583 198.779 C 179.215 198.524,179.083 197.879,178.298 197.389 C 177.785 197.068,177.665 197.060,177.850 197.360 C 178.007 197.614,177.965 197.684,177.739 197.544 C 177.538 197.421,177.220 197.585,177.031 197.910 C 176.842 198.234,176.682 198.337,176.677 198.139 C 176.671 197.940,176.771 197.673,176.899 197.546 C 177.469 196.976,177.273 196.271,176.594 196.449 C 176.100 196.578,176.006 196.527,176.264 196.269 C 176.644 195.889,176.034 195.000,175.393 195.000 C 175.216 195.000,174.985 194.775,174.879 194.500 C 174.774 194.225,174.458 194.000,174.177 194.000 C 173.871 194.000,173.665 193.699,173.662 193.250 C 173.658 192.692,173.582 192.618,173.365 192.961 C 173.137 193.321,173.022 193.261,172.839 192.686 C 172.711 192.281,172.532 192.024,172.441 192.114 C 172.185 192.370,171.048 191.280,171.141 190.868 C 171.187 190.665,171.161 190.612,171.084 190.750 C 171.007 190.887,170.745 191.000,170.502 191.000 C 170.035 191.000,170.010 190.448,170.444 189.752 C 170.629 189.457,170.458 189.358,169.852 189.408 C 169.354 189.449,168.989 189.691,168.974 189.989 C 168.957 190.304,168.885 190.347,168.785 190.102 C 168.696 189.883,168.798 189.377,169.012 188.978 C 169.239 188.553,169.258 188.340,169.057 188.465 C 168.869 188.581,168.666 188.349,168.607 187.948 C 168.548 187.547,168.275 187.151,168.000 187.068 C 167.596 186.946,167.580 187.002,167.917 187.358 C 168.146 187.601,168.321 188.033,168.307 188.317 C 168.289 188.663,168.225 188.695,168.112 188.415 C 168.019 188.184,167.802 188.083,167.630 188.189 C 167.458 188.296,167.338 188.259,167.365 188.108 C 167.481 187.440,167.311 186.641,167.083 186.779 C 166.946 186.862,166.613 186.692,166.344 186.402 C 165.911 185.933,165.919 185.898,166.417 186.089 C 166.726 186.207,167.057 186.178,167.152 186.023 C 167.392 185.635,166.199 185.363,165.631 185.676 C 165.361 185.825,164.987 185.737,164.737 185.466 C 164.386 185.086,164.386 184.999,164.737 184.995 C 165.001 184.992,165.038 184.895,164.833 184.745 C 164.395 184.423,164.220 183.557,164.647 183.821 C 164.828 183.933,164.749 183.481,164.471 182.815 C 164.193 182.149,164.127 181.706,164.325 181.828 C 164.533 181.956,164.835 181.618,165.041 181.025 C 165.247 180.434,165.632 180.002,165.949 180.005 C 166.427 180.010,166.433 180.053,166.000 180.333 C 165.725 180.511,165.650 180.654,165.833 180.650 C 166.322 180.642,167.667 179.453,167.667 179.030 C 167.667 178.830,167.758 178.667,167.869 178.667 C 167.981 178.667,167.975 179.054,167.856 179.528 M169.466 179.892 C 169.760 179.780,170.000 179.843,170.000 180.034 C 170.000 180.565,168.570 180.234,168.417 179.667 C 168.305 179.250,168.337 179.245,168.608 179.632 C 168.786 179.888,169.173 180.005,169.466 179.892 M165.189 184.298 C 165.063 184.501,165.157 184.669,165.397 184.672 C 165.714 184.675,165.697 184.765,165.333 185.000 C 165.033 185.194,164.992 185.325,165.230 185.328 C 165.789 185.335,166.005 184.880,165.686 184.365 C 165.497 184.059,165.349 184.039,165.189 184.298 M177.000 205.910 C 176.725 206.014,176.394 206.264,176.264 206.464 C 176.100 206.716,175.896 206.686,175.597 206.365 C 175.330 206.077,175.316 205.986,175.560 206.123 C 175.777 206.245,176.048 206.192,176.163 206.005 C 176.278 205.819,176.626 205.679,176.936 205.693 C 177.396 205.714,177.408 205.754,177.000 205.910 M174.562 207.658 C 174.422 208.578,174.000 208.918,174.000 208.111 C 174.000 207.514,174.256 207.000,174.553 207.000 C 174.613 207.000,174.617 207.296,174.562 207.658 M232.772 217.534 C 233.030 217.994,233.126 217.990,233.674 217.494 C 234.253 216.970,234.277 216.979,234.099 217.656 C 233.959 218.194,234.089 218.419,234.623 218.559 C 235.014 218.661,235.333 218.886,235.333 219.059 C 235.333 219.231,235.183 219.280,235.000 219.167 C 234.566 218.898,234.577 219.211,235.033 220.062 C 235.300 220.560,235.300 220.685,235.033 220.521 C 234.415 220.139,234.627 220.941,235.250 221.342 C 235.806 221.699,235.806 221.708,235.250 221.536 C 234.929 221.436,234.667 221.500,234.667 221.677 C 234.667 221.855,234.901 222.000,235.186 222.000 C 235.472 222.000,235.626 222.130,235.528 222.289 C 235.430 222.447,234.971 222.505,234.508 222.416 C 233.869 222.294,233.667 222.395,233.667 222.835 C 233.667 223.339,233.743 223.355,234.250 222.957 C 234.780 222.542,234.791 222.554,234.372 223.087 C 234.036 223.517,233.797 223.580,233.485 223.321 C 233.189 223.075,232.994 223.074,232.843 223.317 C 232.494 223.883,192.004 223.775,191.255 223.206 C 190.937 222.965,190.783 222.662,190.912 222.533 C 191.041 222.404,190.888 222.397,190.573 222.518 C 190.186 222.667,190.000 222.573,190.000 222.230 C 190.000 221.951,189.854 221.672,189.676 221.611 C 189.498 221.550,189.298 221.141,189.232 220.703 C 189.166 220.264,188.833 219.702,188.492 219.453 C 187.940 219.050,187.934 219.000,188.436 219.000 C 188.746 219.000,189.000 219.175,189.000 219.389 C 189.000 219.781,189.486 219.468,189.516 219.056 C 189.555 218.530,190.111 217.153,190.346 217.000 C 191.101 216.509,232.490 217.029,232.772 217.534 M189.333 218.000 C 189.333 218.423,189.120 218.657,188.750 218.640 C 188.402 218.625,188.334 218.546,188.583 218.446 C 188.813 218.353,189.000 218.065,189.000 217.806 C 189.000 217.546,189.075 217.333,189.167 217.333 C 189.258 217.333,189.333 217.633,189.333 218.000 M189.000 221.500 C 189.228 221.775,189.284 222.002,189.124 222.005 C 188.964 222.008,189.058 222.156,189.333 222.333 C 189.608 222.511,189.683 222.656,189.500 222.656 C 188.893 222.656,188.244 222.080,188.459 221.732 C 188.576 221.544,188.482 221.314,188.252 221.221 C 187.991 221.116,187.975 221.043,188.209 221.026 C 188.416 221.012,188.772 221.225,189.000 221.500 M201.941 222.917 C 207.683 222.968,216.983 222.968,222.607 222.916 C 228.232 222.865,223.533 222.823,212.167 222.823 C 200.800 222.823,196.198 222.865,201.941 222.917 M40.019 248.722 C 39.265 249.669,38.690 250.563,38.741 250.709 C 38.792 250.854,48.958 259.197,61.333 269.248 C 73.708 279.299,103.108 303.183,126.667 322.323 C 150.225 341.464,176.309 362.655,184.630 369.413 C 193.375 376.516,199.950 381.629,200.211 381.529 C 200.659 381.357,217.557 367.666,296.294 303.681 C 318.957 285.264,342.825 265.871,349.333 260.586 C 355.842 255.300,361.208 250.856,361.259 250.710 C 361.366 250.404,358.726 247.000,358.382 247.000 C 358.257 247.000,353.865 250.488,348.622 254.750 C 343.379 259.012,321.256 276.987,299.461 294.693 C 277.666 312.400,246.502 337.724,230.208 350.970 C 213.915 364.216,200.403 375.122,200.182 375.207 C 199.961 375.292,193.192 370.000,185.140 363.447 C 177.088 356.895,166.547 348.329,161.717 344.412 C 156.886 340.496,137.761 324.959,119.217 309.886 C 100.672 294.813,76.650 275.293,65.833 266.508 C 55.017 257.723,45.200 249.740,44.018 248.768 C 41.412 246.623,41.688 246.626,40.019 248.722 M197.833 264.333 L 122.500 264.502 197.917 264.584 C 248.027 264.639,273.333 264.555,273.333 264.333 C 273.333 264.150,273.296 264.037,273.250 264.082 C 273.204 264.127,239.267 264.240,197.833 264.333 " stroke="none" fill="#131313" fill-rule="evenodd"></path>
        <path id="path1" d="M125.806 126.140 C 124.000 126.926,122.041 128.301,121.629 129.070 C 121.237 129.803,121.244 129.807,122.031 129.269 C 122.472 128.967,122.796 128.558,122.750 128.360 C 122.677 128.043,122.842 127.967,123.512 128.012 C 123.610 128.018,123.921 127.793,124.202 127.512 C 124.484 127.230,124.929 127.000,125.190 127.000 C 125.452 127.000,125.667 126.850,125.667 126.667 C 125.667 126.483,125.883 126.333,126.147 126.333 C 126.411 126.333,126.720 126.183,126.833 126.000 C 127.088 125.588,127.068 125.591,125.806 126.140 M127.502 126.003 C 127.636 126.220,152.028 126.305,198.520 126.250 C 237.467 126.204,269.333 126.254,269.333 126.361 C 269.333 126.468,269.558 126.556,269.833 126.556 C 270.493 126.556,270.474 126.125,269.802 125.867 C 268.861 125.506,127.278 125.641,127.502 126.003 M270.667 126.667 C 270.667 126.850,270.804 127.000,270.973 127.000 C 271.141 127.000,271.554 127.087,271.889 127.194 C 272.448 127.371,272.445 127.343,271.853 126.861 C 271.112 126.257,270.667 126.184,270.667 126.667 M273.667 129.158 C 273.667 129.212,274.056 129.512,274.533 129.824 C 275.355 130.363,275.382 130.362,275.070 129.804 C 274.802 129.325,273.667 128.802,273.667 129.158 M275.814 132.312 C 276.136 132.667,276.306 133.107,276.194 133.289 C 276.081 133.472,276.142 133.715,276.328 133.830 C 276.514 133.945,276.662 133.768,276.656 133.436 C 276.644 132.776,275.916 131.667,275.495 131.667 C 275.349 131.667,275.493 131.957,275.814 132.312 M119.404 140.056 L 119.474 147.833 119.680 140.833 C 119.794 136.983,119.950 133.549,120.027 133.203 C 120.104 132.856,119.979 132.506,119.750 132.425 C 119.423 132.309,119.348 133.953,119.404 140.056 M119.487 154.417 C 119.400 154.646,119.368 178.683,119.415 207.833 L 119.502 260.833 119.584 207.611 C 119.650 165.407,119.753 154.354,120.083 154.221 C 120.410 154.089,120.407 154.047,120.073 154.026 C 119.838 154.012,119.574 154.188,119.487 154.417 M168.333 180.833 C 168.815 181.414,169.333 181.490,169.333 180.980 C 169.333 180.786,169.183 180.720,169.000 180.833 C 168.817 180.947,168.667 180.880,168.667 180.686 C 168.667 180.492,168.498 180.333,168.293 180.333 C 168.034 180.333,168.047 180.488,168.333 180.833 M164.712 181.686 C 164.087 183.097,164.371 183.186,165.076 181.800 C 165.393 181.177,165.542 180.667,165.408 180.667 C 165.273 180.667,164.960 181.125,164.712 181.686 M169.760 181.551 C 169.472 181.667,169.540 181.916,169.991 182.401 C 170.426 182.868,170.821 183.006,171.231 182.836 C 171.758 182.618,171.718 182.537,170.909 182.190 C 170.400 181.972,170.088 181.690,170.214 181.563 C 170.470 181.308,170.366 181.305,169.760 181.551 M171.492 183.873 C 171.789 184.170,172.133 184.312,172.256 184.188 C 172.380 184.065,172.260 183.824,171.990 183.654 C 171.203 183.156,170.906 183.287,171.492 183.873 M166.000 185.000 C 166.196 185.367,166.525 185.667,166.730 185.667 C 166.935 185.667,166.832 185.367,166.500 185.000 C 166.168 184.633,165.840 184.333,165.770 184.333 C 165.700 184.333,165.804 184.633,166.000 185.000 M173.575 185.426 C 173.486 185.658,173.995 186.441,174.706 187.165 C 175.418 187.889,176.000 188.283,176.000 188.039 C 176.000 187.795,175.625 187.301,175.167 186.940 C 174.708 186.580,174.333 186.080,174.333 185.829 C 174.333 185.204,173.774 184.906,173.575 185.426 M167.076 186.396 C 167.149 186.614,167.387 186.851,167.604 186.924 C 167.848 187.005,167.922 186.852,167.798 186.528 C 167.565 185.922,166.876 185.796,167.076 186.396 M168.667 188.186 C 168.667 188.472,168.817 188.613,169.000 188.500 C 169.183 188.387,169.333 188.503,169.333 188.758 C 169.333 189.013,169.561 189.222,169.839 189.222 C 170.227 189.222,170.175 189.041,169.614 188.444 C 168.751 187.525,168.667 187.502,168.667 188.186 M177.546 189.565 C 177.174 189.937,177.314 190.300,177.967 190.649 C 178.507 190.938,178.575 190.890,178.427 190.322 C 178.229 189.567,177.861 189.250,177.546 189.565 M170.333 190.147 C 170.333 190.411,170.507 190.734,170.718 190.865 C 170.957 191.013,171.013 190.957,170.865 190.718 C 170.734 190.507,170.800 190.333,171.012 190.333 C 171.223 190.333,171.474 190.632,171.569 190.996 C 171.664 191.361,171.853 191.591,171.988 191.508 C 172.123 191.424,172.428 191.721,172.667 192.167 C 172.905 192.612,173.228 192.899,173.384 192.802 C 173.686 192.615,171.081 189.667,170.612 189.667 C 170.459 189.667,170.333 189.883,170.333 190.147 M179.717 191.983 C 179.790 192.203,179.959 192.372,180.092 192.358 C 180.490 192.317,180.413 191.860,179.983 191.717 C 179.763 191.643,179.643 191.763,179.717 191.983 M173.667 193.281 C 173.667 193.424,174.140 193.891,174.719 194.319 L 175.771 195.097 175.136 194.229 C 174.486 193.343,173.667 192.814,173.667 193.281 M182.333 194.920 C 182.333 195.059,182.637 195.362,183.008 195.594 C 183.633 195.985,183.651 195.966,183.261 195.341 C 182.841 194.669,182.333 194.439,182.333 194.920 M176.994 196.220 C 177.183 196.314,177.259 196.517,177.163 196.672 C 177.068 196.827,177.156 197.057,177.360 197.183 C 177.591 197.326,177.687 197.188,177.615 196.817 C 177.552 196.490,177.309 196.183,177.075 196.136 C 176.841 196.089,176.805 196.127,176.994 196.220 M184.693 197.209 C 184.653 197.787,185.563 198.437,185.823 198.016 C 185.942 197.824,185.818 197.667,185.547 197.667 C 185.277 197.667,184.980 197.479,184.887 197.250 C 184.782 196.988,184.710 196.973,184.693 197.209 M179.005 198.512 C 179.014 199.086,179.624 199.821,179.879 199.566 C 180.015 199.429,179.873 199.064,179.563 198.754 C 179.254 198.444,179.002 198.335,179.005 198.512 M187.899 200.750 C 188.275 201.162,188.502 201.725,188.403 202.000 C 188.247 202.438,188.297 202.441,188.809 202.018 C 189.365 201.559,189.363 201.513,188.780 201.077 C 188.443 200.826,188.204 200.480,188.250 200.310 C 188.296 200.139,188.082 200.000,187.775 200.000 C 187.290 200.000,187.306 200.098,187.899 200.750 M181.294 201.064 C 181.272 201.304,181.282 201.703,181.316 201.950 C 181.354 202.226,181.220 202.303,180.971 202.149 C 180.705 201.984,180.650 202.036,180.812 202.298 C 181.003 202.608,181.174 202.604,181.566 202.278 C 181.935 201.973,181.962 201.821,181.666 201.722 C 181.345 201.615,181.345 201.532,181.665 201.335 C 181.955 201.155,181.966 201.018,181.702 200.855 C 181.499 200.730,181.316 200.824,181.294 201.064 M187.667 202.791 C 187.667 203.065,187.380 203.379,187.030 203.490 C 186.034 203.807,185.483 204.616,185.947 205.081 C 186.240 205.373,186.333 205.349,186.330 204.983 C 186.329 204.718,186.801 204.110,187.381 203.634 C 188.072 203.066,188.302 202.687,188.050 202.531 C 187.826 202.393,187.667 202.501,187.667 202.791 M179.339 203.913 C 178.588 204.208,177.959 204.935,178.282 205.135 C 178.440 205.233,178.918 204.942,179.343 204.490 C 180.149 203.631,180.149 203.595,179.339 203.913 M184.833 205.667 C 184.720 205.850,184.749 206.010,184.897 206.021 C 185.045 206.033,184.829 206.178,184.417 206.344 C 184.004 206.510,183.667 206.803,183.667 206.997 C 183.667 207.461,185.223 206.435,185.462 205.813 C 185.669 205.273,185.151 205.152,184.833 205.667 M175.735 207.189 C 175.039 207.677,175.002 208.578,175.695 208.149 C 175.869 208.042,175.925 207.814,175.819 207.644 C 175.714 207.473,175.861 207.333,176.147 207.333 C 176.433 207.333,176.667 207.183,176.667 207.000 C 176.667 206.563,176.614 206.574,175.735 207.189 M181.349 208.817 C 180.749 209.436,180.339 210.143,180.436 210.388 C 180.556 210.689,180.623 210.644,180.640 210.250 C 180.657 209.890,180.932 209.667,181.361 209.667 C 181.772 209.667,181.996 209.497,181.910 209.250 C 181.830 209.021,182.063 208.667,182.427 208.464 C 182.792 208.261,182.944 208.004,182.765 207.894 C 182.585 207.783,181.948 208.199,181.349 208.817 M174.321 209.182 C 174.086 209.465,173.684 209.617,173.429 209.519 C 173.174 209.421,173.047 209.472,173.146 209.633 C 173.245 209.793,173.103 210.110,172.830 210.336 C 172.557 210.563,172.333 210.649,172.333 210.528 C 172.333 210.406,172.124 210.500,171.868 210.737 C 171.613 210.973,171.471 211.279,171.555 211.417 C 171.638 211.554,171.538 211.667,171.333 211.667 C 171.128 211.667,171.046 211.805,171.151 211.975 C 171.256 212.144,171.077 212.335,170.754 212.399 C 170.431 212.463,170.317 212.605,170.500 212.714 C 170.683 212.823,171.779 211.957,172.934 210.789 C 174.089 209.622,174.970 208.667,174.891 208.667 C 174.813 208.667,174.556 208.898,174.321 209.182 M177.315 212.910 C 176.684 213.593,176.520 213.856,176.952 213.493 C 177.383 213.130,177.833 212.871,177.952 212.917 C 178.070 212.963,178.173 212.813,178.182 212.583 C 178.190 212.354,178.389 212.208,178.623 212.258 C 178.858 212.309,178.955 212.196,178.838 212.008 C 178.552 211.544,178.608 211.511,177.315 212.910 M169.406 213.674 C 169.015 214.300,169.034 214.318,169.659 213.927 C 170.030 213.696,170.333 213.392,170.333 213.253 C 170.333 212.772,169.825 213.002,169.406 213.674 M174.968 215.201 L 174.257 215.958 174.962 215.773 C 175.349 215.672,175.667 215.373,175.667 215.108 C 175.667 214.844,175.806 214.714,175.977 214.819 C 176.148 214.925,176.366 214.883,176.462 214.728 C 176.845 214.108,175.634 214.492,174.968 215.201 M166.999 215.502 C 166.824 215.962,166.509 216.300,166.298 216.252 C 166.087 216.205,165.883 216.514,165.844 216.938 L 165.775 217.710 166.495 216.934 C 166.891 216.507,167.302 215.822,167.409 215.412 C 167.673 214.404,167.393 214.465,166.999 215.502 M172.787 217.500 C 172.682 217.775,172.452 218.000,172.277 218.000 C 171.832 218.000,168.000 221.853,168.000 222.301 C 168.000 222.502,167.737 222.679,167.417 222.693 C 167.096 222.707,167.012 222.792,167.230 222.881 C 167.671 223.060,169.455 222.011,169.179 221.735 C 168.945 221.500,170.417 220.478,170.806 220.605 C 170.975 220.659,170.934 220.488,170.715 220.224 C 170.396 219.841,170.435 219.699,170.908 219.517 C 171.234 219.393,171.531 219.337,171.570 219.395 C 171.639 219.499,173.333 217.296,173.333 217.102 C 173.333 216.794,172.951 217.072,172.787 217.500 M212.000 217.337 L 191.500 217.508 212.167 217.627 C 223.533 217.692,232.937 217.731,233.064 217.713 C 233.191 217.694,233.604 218.072,233.981 218.551 C 234.760 219.542,234.860 219.443,234.250 218.285 C 234.021 217.851,233.608 217.501,233.333 217.509 C 233.058 217.516,232.758 217.442,232.667 217.344 C 232.575 217.247,223.275 217.243,212.000 217.337 M189.735 218.348 C 189.477 218.761,189.455 219.000,189.674 219.000 C 189.865 219.000,190.110 218.769,190.218 218.486 C 190.518 217.704,190.194 217.612,189.735 218.348 M189.277 219.496 C 188.974 219.805,189.296 221.473,189.686 221.611 C 189.859 221.672,190.000 221.935,190.000 222.194 C 190.000 222.454,190.167 222.667,190.372 222.667 C 190.605 222.667,190.554 222.377,190.232 221.887 C 189.951 221.458,189.671 220.693,189.611 220.188 C 189.550 219.683,189.400 219.372,189.277 219.496 M234.202 221.527 C 233.934 222.227,233.946 222.333,234.294 222.333 C 234.456 222.333,234.667 222.033,234.763 221.667 C 234.969 220.879,234.496 220.762,234.202 221.527 M191.667 223.333 C 191.667 223.552,198.667 223.667,212.000 223.667 C 225.333 223.667,232.333 223.552,232.333 223.333 C 232.333 223.115,225.333 223.000,212.000 223.000 C 198.667 223.000,191.667 223.115,191.667 223.333 M276.379 261.223 C 276.306 262.382,275.978 262.971,275.506 262.790 C 275.265 262.697,274.968 262.781,274.847 262.977 C 274.726 263.173,274.824 263.336,275.064 263.338 C 275.384 263.342,275.367 263.437,275.000 263.697 C 274.592 263.985,274.589 264.027,274.980 263.921 C 275.795 263.701,276.736 262.152,276.575 261.298 C 276.436 260.565,276.420 260.559,276.379 261.223 M119.345 261.583 C 119.359 262.233,120.996 264.398,120.998 263.770 C 120.999 263.551,120.857 263.284,120.681 263.176 C 120.506 263.067,120.448 262.757,120.552 262.486 C 120.684 262.140,120.584 262.053,120.217 262.193 C 119.823 262.345,119.727 262.221,119.827 261.697 C 119.901 261.314,119.820 261.000,119.648 261.000 C 119.475 261.000,119.339 261.262,119.345 261.583 M121.693 264.083 C 121.679 264.404,121.892 264.667,122.167 264.667 C 122.442 264.667,122.667 264.508,122.667 264.314 C 122.667 264.120,122.529 264.045,122.362 264.149 C 122.194 264.253,121.981 264.149,121.888 263.919 C 121.786 263.666,121.709 263.731,121.693 264.083 " stroke="none" fill="#0b0b0b" fill-rule="evenodd"></path>
        <path id="path2" d="M128.282 126.748 C 128.418 126.885,159.978 127.035,198.415 127.082 C 236.852 127.128,268.188 127.055,268.052 126.918 C 267.915 126.782,236.355 126.632,197.918 126.585 C 159.482 126.538,128.145 126.612,128.282 126.748 M274.000 129.873 C 274.000 130.056,274.220 130.497,274.489 130.853 C 274.759 131.209,274.979 131.350,274.979 131.167 C 274.979 130.983,274.759 130.542,274.489 130.186 C 274.220 129.830,274.000 129.689,274.000 129.873 M275.000 132.000 C 275.000 132.183,275.168 132.333,275.374 132.333 C 275.619 132.333,275.590 132.535,275.291 132.917 C 274.875 133.446,274.887 133.458,275.421 133.039 C 275.872 132.685,275.920 132.472,275.630 132.122 C 275.181 131.581,275.000 131.546,275.000 132.000 M120.201 133.198 C 120.061 133.563,120.194 133.983,120.553 134.309 C 121.081 134.789,121.095 134.787,120.718 134.282 C 120.460 133.938,120.431 133.688,120.642 133.616 C 120.835 133.549,120.861 133.311,120.702 133.055 C 120.485 132.705,120.378 132.735,120.201 133.198 M119.806 141.667 C 119.806 145.242,119.855 146.704,119.915 144.917 C 119.975 143.129,119.975 140.204,119.915 138.417 C 119.855 136.629,119.806 138.092,119.806 141.667 M198.083 147.917 C 146.424 147.973,120.333 148.113,120.333 148.335 C 120.333 148.558,146.392 148.668,198.167 148.665 C 266.934 148.662,276.000 148.603,276.000 148.164 C 276.000 147.890,275.962 147.704,275.917 147.749 C 275.871 147.795,240.846 147.870,198.083 147.917 M120.667 154.332 C 120.667 154.551,146.983 154.693,198.124 154.749 C 259.981 154.816,275.550 154.749,275.422 154.417 C 275.216 153.880,120.667 153.796,120.667 154.332 M119.829 208.000 C 119.829 237.058,119.869 248.946,119.917 234.417 C 119.965 219.887,119.965 196.112,119.917 181.583 C 119.869 167.054,119.829 178.942,119.829 208.000 M165.490 184.984 C 165.684 185.298,165.557 185.344,164.993 185.165 C 164.334 184.955,164.296 184.988,164.700 185.420 C 164.955 185.693,165.351 185.844,165.582 185.756 C 166.105 185.555,166.120 185.114,165.615 184.802 C 165.365 184.647,165.321 184.711,165.490 184.984 M177.033 188.583 C 177.286 188.996,177.597 189.333,177.723 189.333 C 177.849 189.333,178.188 189.569,178.476 189.857 C 178.952 190.333,179.000 190.332,179.000 189.847 C 179.000 189.553,178.737 189.219,178.417 189.106 C 178.096 188.992,177.550 188.659,177.203 188.366 C 176.601 187.857,176.593 187.867,177.033 188.583 M168.855 189.275 C 168.718 189.701,168.694 190.139,168.803 190.247 C 168.911 190.356,169.000 190.186,169.000 189.869 C 169.000 189.553,169.140 189.380,169.310 189.486 C 169.481 189.591,169.729 189.502,169.862 189.287 C 170.006 189.055,169.959 188.986,169.747 189.117 C 169.551 189.238,169.326 189.149,169.247 188.919 C 169.167 188.684,168.995 188.841,168.855 189.275 M185.787 196.835 C 185.672 197.134,185.748 197.548,185.956 197.756 C 186.163 197.963,186.345 198.066,186.359 197.983 C 186.373 197.901,186.435 197.571,186.496 197.251 C 186.643 196.483,186.054 196.137,185.787 196.835 M187.139 203.936 C 186.044 204.852,186.212 206.058,187.333 205.333 C 187.748 205.065,187.720 205.008,187.167 204.995 C 186.516 204.979,186.515 204.967,187.132 204.500 C 187.480 204.237,187.891 204.099,188.045 204.195 C 188.200 204.290,188.236 204.135,188.127 203.851 C 187.890 203.234,187.989 203.225,187.139 203.936 M176.163 206.005 C 176.048 206.192,175.777 206.245,175.560 206.123 C 175.260 205.955,175.261 206.004,175.562 206.330 C 175.882 206.676,176.061 206.653,176.502 206.212 C 176.802 205.912,176.896 205.667,176.710 205.667 C 176.525 205.667,176.278 205.819,176.163 206.005 M175.121 206.925 C 175.244 207.124,175.192 207.381,175.005 207.497 C 174.819 207.612,174.667 207.517,174.667 207.286 C 174.667 206.983,174.566 206.967,174.302 207.231 C 174.102 207.432,173.989 207.850,174.052 208.160 C 174.150 208.642,174.281 208.603,174.942 207.898 C 175.510 207.291,175.607 207.003,175.307 206.817 C 175.053 206.660,174.982 206.702,175.121 206.925 M184.363 207.278 C 184.121 207.730,184.153 207.889,184.486 207.889 C 184.749 207.889,184.857 207.681,184.745 207.390 C 184.610 207.038,184.684 206.971,184.995 207.163 C 185.289 207.345,185.357 207.308,185.198 207.052 C 184.876 206.529,184.745 206.564,184.363 207.278 M180.708 210.692 C 180.480 211.346,180.208 211.629,179.957 211.473 C 179.708 211.320,179.652 211.374,179.805 211.621 C 180.127 212.141,180.637 211.788,181.020 210.781 C 181.192 210.329,181.452 210.034,181.599 210.125 C 181.745 210.215,182.083 210.152,182.349 209.983 C 182.715 209.752,182.617 209.676,181.949 209.672 C 181.260 209.668,180.987 209.892,180.708 210.692 M170.333 211.324 C 170.333 211.564,170.071 211.959,169.750 212.203 C 169.215 212.609,169.213 212.646,169.728 212.656 C 170.287 212.667,170.904 211.460,170.530 211.086 C 170.422 210.978,170.333 211.085,170.333 211.324 M177.111 213.815 C 177.111 214.179,177.261 214.217,177.722 213.970 C 178.058 213.790,178.333 213.573,178.333 213.488 C 178.333 213.403,178.058 213.333,177.722 213.333 C 177.386 213.333,177.111 213.550,177.111 213.815 M166.167 215.255 C 165.657 215.629,165.616 216.332,166.115 216.140 C 166.426 216.021,166.815 214.952,166.528 215.005 C 166.512 215.008,166.350 215.120,166.167 215.255 M190.332 216.944 C 189.763 217.135,189.968 217.522,190.667 217.575 C 191.033 217.603,191.333 217.522,191.333 217.396 C 191.333 217.270,200.596 217.172,211.917 217.179 C 223.237 217.186,230.400 217.149,227.833 217.097 C 220.258 216.944,190.693 216.824,190.332 216.944 M189.000 217.806 C 189.000 218.065,188.813 218.353,188.583 218.446 C 188.334 218.546,188.402 218.625,188.750 218.640 C 189.120 218.657,189.333 218.423,189.333 218.000 C 189.333 217.633,189.258 217.333,189.167 217.333 C 189.075 217.333,189.000 217.546,189.000 217.806 M172.431 218.583 C 172.312 218.904,172.054 219.277,171.858 219.412 C 171.623 219.572,171.654 219.658,171.948 219.662 C 172.194 219.664,172.478 219.354,172.577 218.972 C 172.716 218.444,172.827 218.384,173.041 218.722 C 173.257 219.063,173.324 219.030,173.328 218.583 C 173.331 218.262,173.179 218.000,172.990 218.000 C 172.800 218.000,172.549 218.262,172.431 218.583 M188.252 221.221 C 188.482 221.314,188.576 221.544,188.459 221.732 C 188.244 222.080,188.893 222.656,189.500 222.656 C 189.683 222.656,189.608 222.511,189.333 222.333 C 189.058 222.156,188.964 222.008,189.124 222.005 C 189.284 222.002,189.228 221.775,189.000 221.500 C 188.772 221.225,188.416 221.012,188.209 221.026 C 187.975 221.043,187.991 221.116,188.252 221.221 M121.778 263.151 C 121.778 263.418,121.904 263.559,122.058 263.464 C 122.212 263.369,122.428 263.526,122.539 263.814 C 122.779 264.440,273.447 264.626,273.833 264.000 C 273.966 263.786,247.877 263.671,198.459 263.668 C 131.754 263.664,122.818 263.605,122.330 263.164 C 121.852 262.731,121.778 262.729,121.778 263.151 M274.000 262.924 C 274.000 263.458,275.074 263.730,275.472 263.295 C 275.738 263.006,275.719 262.967,275.402 263.146 C 275.165 263.281,274.752 263.209,274.485 262.988 C 274.199 262.750,274.000 262.724,274.000 262.924 " stroke="none" fill="#0f1313" fill-rule="evenodd"></path>
        <path id="path3" d="" stroke="none" fill="#130b0f" fill-rule="evenodd"></path>
        <path id="path4" d="" stroke="none" fill="#13130b" fill-rule="evenodd"></path>
    </g>
</svg>